<svg xmlns="http://www.w3.org/2000/svg" viewBox="0 0 400 300" role="img" aria-hidden="true"><circle cx="200" cy="158" r="118" fill="#E4F8EE"/><circle cx="318" cy="70" r="10" fill="#04D98B"/><circle cx="84" cy="236" r="6" fill="#04D98B"/><rect x="70" y="20" width="260" height="236" rx="8" fill="#FCFBF7" stroke="#E4E1D8" stroke-width="3"/><rect x="186" y="96" width="28" height="80" rx="4" fill="#E4E1D8"/><rect x="146" y="50" width="108" height="170" rx="12" fill="#161616"/><rect x="154" y="58" width="92" height="154" rx="4" fill="#FFFFFF"/><rect x="159.0" y="63.0" width="41.0" height="26.8" rx="4" fill="#04D98B"/><rect x="205.0" y="63.0" width="41.0" height="26.8" rx="4" fill="#E4F8EE"/><rect x="159.0" y="94.8" width="41.0" height="26.8" rx="4" fill="#E4F8EE"/><rect x="205.0" y="94.8" width="41.0" height="26.8" rx="4" fill="#E4F8EE"/><rect x="159.0" y="126.5" width="41.0" height="26.8" rx="4" fill="#E4F8EE"/><rect x="205.0" y="126.5" width="41.0" height="26.8" rx="4" fill="#04D98B"/><rect x="159.0" y="158.2" width="41.0" height="26.8" rx="4" fill="#04D98B"/><rect x="205.0" y="158.2" width="41.0" height="26.8" rx="4" fill="#E4F8EE"/><rect x="170" y="196" width="60" height="12" rx="6" fill="#161616"/></svg>