<svg xmlns="http://www.w3.org/2000/svg" viewBox="0 0 400 300" role="img" aria-hidden="true"><circle cx="200" cy="158" r="118" fill="#E4F8EE"/><circle cx="318" cy="70" r="10" fill="#04D98B"/><circle cx="84" cy="236" r="6" fill="#04D98B"/><path d="M200 20 V58" stroke="#161616" stroke-width="3"/><path d="M166 84 q34 -40 68 0z" fill="#161616"/><circle cx="200" cy="90" r="8" fill="#04D98B"/><rect x="80" y="182" width="240" height="14" rx="7" fill="#161616"/><rect x="104" y="196" width="10" height="58" fill="#2E302E"/><rect x="286" y="196" width="10" height="58" fill="#2E302E"/><ellipse cx="150" cy="176" rx="36" ry="8" fill="#FFFFFF" stroke="#E4E1D8" stroke-width="2"/><circle cx="150" cy="170" r="12" fill="#04D98B"/><ellipse cx="250" cy="176" rx="36" ry="8" fill="#FFFFFF" stroke="#E4E1D8" stroke-width="2"/><circle cx="246" cy="170" r="10" fill="#036B45"/><circle cx="258" cy="172" r="7" fill="#E4F8EE"/><path d="M200 130 h18 l-4 26 q-5 6 -10 0 z" fill="#E4F8EE" stroke="#161616" stroke-width="2"/><rect x="208" y="156" width="2" height="20" fill="#161616"/><rect x="200" y="175" width="18" height="3" rx="1.5" fill="#161616"/></svg>