<svg xmlns="http://www.w3.org/2000/svg" viewBox="0 0 400 300" role="img" aria-hidden="true"><circle cx="200" cy="158" r="118" fill="#E4F8EE"/><circle cx="318" cy="70" r="10" fill="#04D98B"/><circle cx="84" cy="236" r="6" fill="#04D98B"/><g transform="translate(0 0) scale(1)"><rect x="150" y="238" width="100" height="12" rx="6" fill="#161616"/><rect x="190" y="196" width="20" height="46" rx="4" fill="#2E302E"/><rect x="266" y="176" width="10" height="64" rx="3" fill="#2E302E"/><rect x="250" y="138" width="62" height="46" rx="8" fill="#161616"/><rect x="256" y="144" width="50" height="34" rx="4" fill="#FFFFFF"/><rect x="262" y="152" width="38" height="5" rx="2.5" fill="#E4E1D8"/><rect x="262" y="162" width="26" height="8" rx="4" fill="#04D98B"/><rect x="106" y="84" width="176" height="120" rx="10" fill="#161616"/><rect x="114" y="92" width="160" height="104" rx="4" fill="#FFFFFF"/><rect x="120.0" y="98.0" width="28.3" height="43.0" rx="4" fill="#04D98B"/><rect x="154.3" y="98.0" width="28.3" height="43.0" rx="4" fill="#E4F8EE"/><rect x="188.5" y="98.0" width="28.3" height="43.0" rx="4" fill="#E4F8EE"/><rect x="120.0" y="147.0" width="28.3" height="43.0" rx="4" fill="#E4F8EE"/><rect x="154.3" y="147.0" width="28.3" height="43.0" rx="4" fill="#E4F8EE"/><rect x="188.5" y="147.0" width="28.3" height="43.0" rx="4" fill="#04D98B"/><rect x="222.8" y="98" width="45.2" height="92" rx="4" fill="#FCFBF7"/><rect x="228.8" y="106" width="33.2" height="5" rx="2.5" fill="#E4E1D8"/><rect x="228.8" y="118" width="23.2" height="5" rx="2.5" fill="#E4E1D8"/><rect x="228.8" y="130" width="33.2" height="5" rx="2.5" fill="#E4E1D8"/><rect x="228.8" y="142" width="23.2" height="5" rx="2.5" fill="#E4E1D8"/><rect x="228.8" y="172" width="33.2" height="11" rx="5.5" fill="#161616"/></g><rect x="50" y="250" width="300" height="8" rx="4" fill="#E4E1D8"/></svg>